# xmcd
#
# Track frame offsets:
#	150
#	4174
#	16179
#	32785
#	45649
#	60869
#	73004
#	85141
#	98904
#	111150
#	122893
#	133259
#	145409
#	160269
#	173812
#	188235
#	206684
#	221166
#	233785
#	247205
#	260206
#	274204
#	287612
#
# Disc length: 4009 seconds
#
# Revision: 0
# Processed by: cddbd v1.5.2PL0 Copyright (c) Steve Scherf et al.
# Submitted via: EasyCDDAExtractor 12.0.4.1
#
DISCID=5f0fa717
DTITLE=Merle Haggard - A Tribute to the Best Damn Fiddle Player In The World &
DTITLE=It's All In the Movies
DYEAR=2006
DGENRE=Country
TTITLE0=Brown Skinned Girl
TTITLE1=Right or Wrong
TTITLE2=Brain Cloudy Blues
TTITLE3=Stay a Little Longer
TTITLE4=Misery
TTITLE5=Time Changes Everything
TTITLE6=San Antonio Rose
TTITLE7=I Knew the Moment I Lost You
TTITLE8=Roly Poly
TTITLE9=Old Fashioned Love
TTITLE10=Corrine Corrina
TTITLE11=Take Me Back to Tulsa
TTITLE12=It's All In the Movies
TTITLE13=Nothing's Worse than Losing
TTITLE14=After Loving You
TTITLE15=Stingeree
TTITLE16=I Know an Ending
TTITLE17=This is the Song We Sing
TTITLE18=Living with the Shades Pulled Down
TTITLE19=Hag's Dixie Blues
TTITLE20=Let's Stop Pretending
TTITLE21=Cotton Patch Blues
TTITLE22=The Seeker
EXTD=
EXTT0=
EXTT1=
EXTT2=
EXTT3=
EXTT4=
EXTT5=
EXTT6=
EXTT7=
EXTT8=
EXTT9=
EXTT10=
EXTT11=
EXTT12=
EXTT13=
EXTT14=
EXTT15=
EXTT16=
EXTT17=
EXTT18=
EXTT19=
EXTT20=
EXTT21=
EXTT22=
PLAYORDER=
